<svg xmlns="http://www.w3.org/2000/svg" viewBox="0 0 228.26 228.27"><defs><style>.cls-1{font-size:14px;fill:#e8e8e8;font-family:MonumentExtended-Regular, Monument Extended;}</style></defs><title>Fichier 11</title><g id="Calque_2" data-name="Calque 2"><g id="Mode_Isolation" data-name="Mode Isolation"><text class="cls-1" transform="translate(114.22 216.53) rotate(-176.97)">L</text><text class="cls-1" transform="matrix(-0.99, -0.16, 0.16, -0.99, 103.75, 216.04)">o</text><text class="cls-1" transform="translate(92.15 214.19) rotate(-164.21)">a</text><text class="cls-1" transform="translate(80.85 211.03) rotate(-157.52)">d</text><text class="cls-1" transform="matrix(-0.89, -0.45, 0.45, -0.89, 69.61, 206.21)">i</text><text class="cls-1" transform="matrix(-0.85, -0.52, 0.52, -0.85, 66.47, 204.83)">n</text><text class="cls-1" transform="matrix(-0.79, -0.62, 0.62, -0.79, 56.02, 198.49)">g</text><text class="cls-1" transform="translate(46.43 190.81) rotate(-136.75)"> </text><text class="cls-1" transform="translate(41.84 186.64) rotate(-131.98)">L</text><text class="cls-1" transform="matrix(-0.59, -0.81, 0.81, -0.59, 34.77, 178.89)">o</text><text class="cls-1" transform="translate(27.88 169.39) rotate(-119.27)">a</text><text class="cls-1" transform="translate(22.1 159.16) rotate(-112.6)">d</text><text class="cls-1" transform="matrix(-0.31, -0.95, 0.95, -0.31, 17.56, 147.82)">i</text><text class="cls-1" transform="matrix(-0.24, -0.97, 0.97, -0.24, 16.31, 144.61)">n</text><text class="cls-1" transform="translate(13.39 132.73) rotate(-96.89)">g</text><text class="cls-1" transform="translate(12.04 120.55) rotate(-91.77)"> </text><text class="cls-1" transform="matrix(0.05, -1, 1, 0.05, 11.75, 114.34)">L</text><text class="cls-1" transform="matrix(0.16, -0.99, 0.99, 0.16, 12.22, 103.85)">o</text><text class="cls-1" transform="translate(14.05 92.26) rotate(-74.28)">a</text><text class="cls-1" transform="matrix(0.38, -0.92, 0.92, 0.38, 17.2, 80.95)">d</text><text class="cls-1" transform="translate(22.01 69.71) rotate(-63.2)">i</text><text class="cls-1" transform="translate(23.39 66.57) rotate(-58.74)">n</text><text class="cls-1" transform="matrix(0.62, -0.79, 0.79, 0.62, 29.71, 56.11)">g</text><text class="cls-1" transform="matrix(0.68, -0.73, 0.73, 0.68, 37.39, 46.51)"> </text><text class="cls-1" transform="translate(41.55 41.91) rotate(-42.04)">L</text><text class="cls-1" transform="translate(49.29 34.84) rotate(-35.87)">o</text><text class="cls-1" transform="translate(58.79 27.94) rotate(-29.34)">a</text><text class="cls-1" transform="translate(69.01 22.15) rotate(-22.66)">d</text><text class="cls-1" transform="translate(80.34 17.59) rotate(-18.27)">i</text><text class="cls-1" transform="translate(83.55 16.34) rotate(-13.78)">n</text><text class="cls-1" transform="matrix(0.99, -0.12, 0.12, 0.99, 95.44, 13.4)">g</text><text class="cls-1" transform="translate(107.62 12.05) rotate(-1.82)"> </text><text class="cls-1" transform="translate(113.83 11.74) rotate(2.9)">L</text><text class="cls-1" transform="translate(124.31 12.2) rotate(9.08)">o</text><text class="cls-1" transform="translate(135.9 14.02) rotate(15.65)">a</text><text class="cls-1" transform="translate(147.23 17.16) rotate(22.36)">d</text><text class="cls-1" transform="translate(158.46 21.95) rotate(26.73)">i</text><text class="cls-1" transform="matrix(0.86, 0.52, -0.52, 0.86, 161.6, 23.33)">n</text><text class="cls-1" transform="matrix(0.79, 0.62, -0.62, 0.79, 172.07, 29.64)">g</text><text class="cls-1" transform="matrix(0.73, 0.68, -0.68, 0.73, 181.68, 37.31)"> </text><text class="cls-1" transform="matrix(0.67, 0.74, -0.74, 0.67, 186.28, 41.47)">L</text><text class="cls-1" transform="matrix(0.59, 0.81, -0.81, 0.59, 193.36, 49.2)">o</text><text class="cls-1" transform="matrix(0.49, 0.87, -0.87, 0.49, 200.27, 58.68)">a</text><text class="cls-1" transform="translate(206.07 68.9) rotate(67.27)">d</text><text class="cls-1" transform="translate(210.64 80.23) rotate(71.66)">i</text><text class="cls-1" transform="matrix(0.24, 0.97, -0.97, 0.24, 211.9, 83.43)">n</text><text class="cls-1" transform="translate(214.84 95.31) rotate(82.98)">g</text><text class="cls-1" transform="translate(216.22 107.52) rotate(88.12)"> </text><text class="cls-1" transform="translate(216.53 113.71) rotate(92.83)">L</text><text class="cls-1" transform="matrix(-0.16, 0.99, -0.99, -0.16, 216.08, 124.2)">o</text><text class="cls-1" transform="translate(214.27 135.78) rotate(105.59)">a</text><text class="cls-1" transform="translate(211.15 147.11) rotate(112.29)">d</text><text class="cls-1" transform="translate(206.37 158.35) rotate(116.66)">i</text><text class="cls-1" transform="translate(204.99 161.5) rotate(121.13)">n</text><text class="cls-1" transform="matrix(-0.61, 0.79, -0.79, -0.61, 198.69, 171.97)">g</text><text class="cls-1" transform="translate(191.04 181.58) rotate(133.06)"> </text><text class="cls-1" transform="translate(186.89 186.19) rotate(137.83)">L</text><text class="cls-1" transform="matrix(-0.81, 0.59, -0.59, -0.81, 179.16, 193.28)">o</text><text class="cls-1" transform="translate(169.69 200.2) rotate(150.53)">a</text><text class="cls-1" transform="translate(159.48 206.01) rotate(157.2)">d</text><text class="cls-1" transform="matrix(-0.95, 0.32, -0.32, -0.95, 148.15, 210.6)">i</text><text class="cls-1" transform="translate(144.96 211.86) rotate(166.09)">n</text><text class="cls-1" transform="matrix(-0.99, 0.12, -0.12, -0.99, 133.08, 214.82)">g</text></g></g></svg>